<svg version="1.1"
baseProfile="full"
width="800" height="500"
xmlns="http://www.w3.org/2000/svg">
<rect width="100%" height="100%" fill="red" />
<circle cx="50" cy="50" r="50" fill="green" />
<circle cx="150" cy="50" r="50" fill="green" />
<circle cx="250" cy="50" r="50" fill="green" />
<circle cx="350" cy="50" r="50" fill="green" />
<circle cx="450" cy="50" r="50" fill="green" />
<circle cx="550" cy="50" r="50" fill="green" />
<circle cx="650" cy="50" r="50" fill="green" />
<circle cx="750" cy="50" r="50" fill="green" />
<circle cx="50" cy="150" r="50" fill="green" />
<circle cx="150" cy="150" r="50" fill="green" />
<circle cx="250" cy="150" r="50" fill="green" />
<circle cx="350" cy="150" r="50" fill="green" />
<circle cx="450" cy="150" r="50" fill="green" />
<circle cx="550" cy="150" r="50" fill="green" />
<circle cx="650" cy="150" r="50" fill="green" />
<circle cx="750" cy="150" r="50" fill="green" />
<circle cx="50" cy="250" r="50" fill="green" />
<circle cx="150" cy="250" r="50" fill="green" />
<circle cx="250" cy="250" r="50" fill="green" />
<circle cx="350" cy="250" r="50" fill="green" />
<circle cx="450" cy="250" r="50" fill="green" />
<circle cx="550" cy="250" r="50" fill="green" />
<circle cx="650" cy="250" r="50" fill="green" />
<circle cx="750" cy="250" r="50" fill="green" />
<circle cx="50" cy="350" r="50" fill="green" />
<circle cx="150" cy="350" r="50" fill="green" />
<circle cx="250" cy="350" r="50" fill="green" />
<circle cx="350" cy="350" r="50" fill="green" />
<circle cx="450" cy="350" r="50" fill="green" />
<circle cx="550" cy="350" r="50" fill="green" />
<circle cx="650" cy="350" r="50" fill="green" />
<circle cx="750" cy="350" r="50" fill="green" />
<circle cx="50" cy="450" r="50" fill="green" />
<circle cx="150" cy="450" r="50" fill="green" />
<circle cx="250" cy="450" r="50" fill="green" />
<circle cx="350" cy="450" r="50" fill="green" />
<circle cx="450" cy="450" r="50" fill="green" />
<circle cx="550" cy="450" r="50" fill="green" />
<circle cx="650" cy="450" r="50" fill="green" />
<circle cx="750" cy="450" r="50" fill="green" />
</svg>